<svg xmlns="http://www.w3.org/2000/svg" xmlns:xlink="http://www.w3.org/1999/xlink" viewBox="0 0 26 28" version="1.1" x="0px" y="0px"><title>Icons / create-new-version-icon</title><desc>Created with Sketch.</desc><g stroke="none" stroke-width="1" fill="none" fill-rule="evenodd"><g transform="translate(-350.000000, -289.000000)" fill="#000000"><g transform="translate(350.000000, 289.000000)"><path d="M11.5115978,6.04221752 C11.5038678,6.1933243 11.5,6.34592278 11.5,6.5 C11.5,8.69824711 12.2872927,10.5954934 13.8458996,12.1541004 C14.7267425,13.0349432 15.715744,13.6694347 16.8061102,14.0546906 L11.9166667,16.4270833 C11.6874989,16.5416672 11.3819464,16.5989583 11,16.5989583 C10.6180536,16.5989583 10.3125011,16.5416672 10.0833333,16.4270833 L0.401041667,11.7291667 C0.133679219,11.6145828 0,11.471355 0,11.2994792 C0,11.1276033 0.133679219,10.9843756 0.401041667,10.8697917 L10.0833333,6.171875 C10.3125011,6.05729109 10.6180536,6 11,6 C11.1892969,6 11.3598291,6.01407244 11.5115978,6.04221752 Z M21.5989583,16.5416667 C21.8663208,16.6562506 22,16.8090268 22,17 C22,17.1909732 21.8663208,17.3437494 21.5989583,17.4583333 L11.9166667,22.0989583 C11.6111096,22.2517369 11.3055571,22.328125 11,22.328125 C10.6944429,22.328125 10.3888904,22.2517369 10.0833333,22.0989583 L0.401041667,17.4583333 C0.133679219,17.3437494 0,17.1909732 0,17 C0,16.8090268 0.133679219,16.6562506 0.401041667,16.5416667 C1.43229682,16.0451364 2.06249885,15.7395839 2.29166667,15.625 C2.52083448,15.4722215 2.76909589,15.4722215 3.03645833,15.625 L10.0833333,19.0625 C10.3125011,19.1770839 10.6180536,19.234375 11,19.234375 C11.3819464,19.234375 11.6874989,19.1770839 11.9166667,19.0625 C16.5382176,16.8090165 18.9253465,15.6440976 19.078125,15.5677083 C19.2690982,15.4913191 19.4409715,15.4913191 19.59375,15.5677083 L21.5989583,16.5416667 Z M21.5989583,22.2708333 C21.8663208,22.3854172 22,22.528645 22,22.7005208 C22,22.8723967 21.8663208,23.0156244 21.5989583,23.1302083 L11.9166667,27.828125 C11.6874989,27.9427089 11.3819464,28 11,28 C10.6180536,28 10.3125011,27.9427089 10.0833333,27.828125 L0.401041667,23.1302083 C0.133679219,23.0156244 0,22.8723967 0,22.7005208 C0,22.528645 0.133679219,22.3854172 0.401041667,22.2708333 C1.43229682,21.7361084 2.06249885,21.4114589 2.29166667,21.296875 C2.48263984,21.1822911 2.73090125,21.2013881 3.03645833,21.3541667 L10.0833333,24.734375 C10.3125011,24.8489589 10.6180536,24.90625 11,24.90625 C11.3819464,24.90625 11.6874989,24.8489589 11.9166667,24.734375 C16.5382176,22.5190861 18.9253465,21.3732643 19.078125,21.296875 C19.2690982,21.2204857 19.4409715,21.2204857 19.59375,21.296875 L21.5989583,22.2708333 Z M14.90625,1.90625 C16.1770897,0.635410312 17.7083244,0 19.5,0 C21.2916756,0 22.8229103,0.635410312 24.09375,1.90625 C25.3645897,3.17708969 26,4.70832438 26,6.5 C26,8.29167562 25.3645897,9.82291031 24.09375,11.09375 C22.8229103,12.3645897 21.2916756,13 19.5,13 C17.7083244,13 16.1770897,12.3645897 14.90625,11.09375 C13.6354103,9.82291031 13,8.29167562 13,6.5 C13,4.70832438 13.6354103,3.17708969 14.90625,1.90625 Z M22.84375,7.15625 L22.84375,5.84375 L20.15625,5.84375 L20.15625,3.15625 L18.84375,3.15625 L18.84375,5.84375 L16.15625,5.84375 L16.15625,7.15625 L18.84375,7.15625 L18.84375,9.84375 L20.15625,9.84375 L20.15625,7.15625 L22.84375,7.15625 Z"></path></g></g></g></svg>